<svg height="512pt" viewBox="-47 0 511 512" width="512pt" xmlns="http://www.w3.org/2000/svg"><path d="m208.660156 0-20.015625 178.074219 20.015625 333.925781h104.054688l30.023437-74.085938 74.082031-30.023437v-407.890625zm0 0" fill="#efe2dd"/><path d="m.5 0v512h208.160156v-303.925781l10.007813-15-10.007813-15v-33.785157l10.007813-15-10.007813-15v-33.785156l10.007813-15-10.007813-15v-50.503906zm0 0" fill="#fff5f5"/><path d="m312.714844 407.890625v104.109375l104.105468-104.109375zm0 0" fill="#cdbfba"/><path d="m48.339844 433.214844h120.308594v30h-120.308594zm0 0" fill="#cdbfba"/><path d="m48.339844 369.429688h120.308594v30h-120.308594zm0 0" fill="#cdbfba"/><path d="m48.339844 208.074219v-23.5c0-19.507813 9.5-38.011719 25.410156-49.496094l9.65625-6.96875-7.339844-9.378906c-5.867187-7.5-8.972656-16.480469-8.972656-25.972657 0-23.300781 18.957031-42.257812 42.257812-42.257812 23.300782 0 42.253907 18.957031 42.253907 42.257812 0 9.492188-3.101563 18.472657-8.96875 25.972657l-7.339844 9.378906 9.652344 6.96875c15.914062 11.484375 25.414062 29.988281 25.414062 49.496094v23.5zm0 0" fill="#ff9100"/><g fill="#9b9696"><path d="m208.660156 50.503906h160.324219v30h-160.324219zm0 0"/><path d="m208.660156 114.289062h160.324219v30h-160.324219zm0 0"/><path d="m208.660156 178.074219h160.324219v30h-160.324219zm0 0"/><path d="m368.984375 335.644531v-30h-160.324219l-10.007812 15 10.007812 15zm0 0"/><path d="m368.984375 241.859375h-160.324219l-10.007812 14.140625 10.007812 15.859375h160.324219zm0 0"/></g><path d="m48.339844 305.644531h160.320312v30h-160.320312zm0 0" fill="#cdbfba"/><path d="m48.339844 241.859375h160.320312v30h-160.320312zm0 0" fill="#cdbfba"/></svg>