<?xml version="1.0" encoding="utf-8"?>
<!-- Generator: Adobe Illustrator 22.1.0, SVG Export Plug-In . SVG Version: 6.00 Build 0)  -->
<svg version="1.1" id="Слой_1" xmlns="http://www.w3.org/2000/svg" xmlns:xlink="http://www.w3.org/1999/xlink" x="0px" y="0px"
	 viewBox="0 0 30 30" style="enable-background:new 0 0 30 30;" xml:space="preserve">
<style type="text/css">
	.st0{fill:#2B414D;}
</style>
<g>
	<path class="st0" d="M26.2,20.2C26.2,20.2,26.3,20.2,26.2,20.2l0-16c0-1-0.8-1.8-1.8-1.8h-19c-1,0-1.8,0.8-1.8,1.8v21.6
		c0,1,0.8,1.8,1.8,1.8h13.4c0.1,0,0.2,0,0.3-0.1c0.1,0,0.2-0.1,0.2-0.2l6.6-6.6c0.1-0.1,0.1-0.1,0.1-0.2c0,0,0,0,0-0.1
		C26.2,20.4,26.2,20.3,26.2,20.2z M5.3,25.8V4.2C5.3,4.1,5.4,4,5.5,4h19c0.1,0,0.3,0.1,0.3,0.3v15.2h-5.9c-0.4,0-0.8,0.3-0.8,0.8V26
		H5.5C5.4,26,5.3,25.9,5.3,25.8z M19.6,25v-4.1h4.1L19.6,25z"/>
	<path class="st0" d="M18.9,8.4h2.7c0.4,0,0.8-0.3,0.8-0.8S22,6.9,21.6,6.9h-2.7c-0.4,0-0.8,0.3-0.8,0.8S18.5,8.4,18.9,8.4z"/>
	<path class="st0" d="M18.9,16.5h2.7c0.4,0,0.8-0.3,0.8-0.8S22,15,21.6,15h-2.7c-0.4,0-0.8,0.3-0.8,0.8S18.5,16.5,18.9,16.5z"/>
	<path class="st0" d="M18.9,12.4h2.7c0.4,0,0.8-0.3,0.8-0.8s-0.3-0.8-0.8-0.8h-2.7c-0.4,0-0.8,0.3-0.8,0.8S18.5,12.4,18.9,12.4z"/>
	<path class="st0" d="M11.7,14.4c2.2,0,4-1.8,4-4s-1.8-4-4-4c-2.2,0-4,1.8-4,4S9.5,14.4,11.7,14.4z M11.7,7.9c1.4,0,2.5,1.1,2.5,2.5
		s-1.1,2.5-2.5,2.5c-1.4,0-2.5-1.1-2.5-2.5S10.3,7.9,11.7,7.9z"/>
	<path class="st0" d="M14.9,21.6H8.4c-0.4,0-0.8,0.3-0.8,0.8s0.3,0.8,0.8,0.8h6.5c0.4,0,0.8-0.3,0.8-0.8S15.4,21.6,14.9,21.6z"/>
	<path class="st0" d="M14.9,17.6H8.4c-0.4,0-0.8,0.3-0.8,0.8s0.3,0.8,0.8,0.8h6.5c0.4,0,0.8-0.3,0.8-0.8S15.4,17.6,14.9,17.6z"/>
</g>
</svg>
