<?xml version="1.0" encoding="utf-8"?>
<!-- Generator: Adobe Illustrator 22.1.0, SVG Export Plug-In . SVG Version: 6.00 Build 0)  -->
<svg version="1.1" id="Слой_1" xmlns="http://www.w3.org/2000/svg" xmlns:xlink="http://www.w3.org/1999/xlink" x="0px" y="0px"
	 viewBox="0 0 30 30" style="enable-background:new 0 0 30 30;" xml:space="preserve">
<style type="text/css">
	.st0{fill:#2B414D;}
</style>
<path class="st0" d="M15,2.5C8.1,2.5,2.5,8.1,2.5,15S8.1,27.5,15,27.5c6.9,0,12.5-5.6,12.5-12.5S21.9,2.5,15,2.5z M13,25.8
	c-0.3-0.3-0.4-0.6-0.5-1c0-0.9,0-2,0-2.1c0,0,0,0,0,0c0,0-0.5,0.1-1,0.1c-0.7,0-1.6-0.2-2.1-1c-0.1-0.2-0.4-1.1-1-1.6
	c0,0-0.5-0.3-0.5-0.5c0,0,0-0.1,0.1-0.1c0,0,0.1-0.1,0.3-0.1c0.3,0,0.8,0.1,1.4,0.8c0.2,0.3,0.6,1.2,1.7,1.2c0.3,0,0.7-0.1,1.2-0.3
	c0.1-0.2,0.2-0.7,0.8-0.8c-3.1-0.4-5-1.8-5.4-4.5c-0.3-1.8,0.8-2.7,1.6-3.4C9.5,12.3,9.1,11,9.7,9.7c0.1,0,0.2,0,0.2,0
	c0.7,0,1.7,0.4,2.7,1.1c0.7-0.2,1.6-0.3,2.5-0.3c1,0,2,0.1,2.5,0.3c0.4-0.3,1.8-1.1,2.7-1.1c0.1,0,0.2,0,0.3,0
	c0.1,0.5,0.1,1.7,0.1,2.8c1,1,1.5,2.1,1.4,3.5c-0.1,2.4-1.7,4.2-4.9,4.4c0.8,0.6,0.9,1.4,0.9,1.8c0,0.4,0.1,1.5,0.1,2.4
	c0,0.4,0,0.7-0.2,1.1C17,25.9,16,26,15,26C14.3,26,13.7,25.9,13,25.8z M19.6,25c0,0,0-0.1,0-0.1c0-0.1,0-0.1,0-0.2
	c0-0.1,0-0.2,0-0.3c-0.1-1.1-0.1-2-0.1-2.3c0,0,0-0.1,0-0.1c0-0.1,0-0.3-0.1-0.6c2.5-0.8,4-2.8,4.1-5.4c0.1-1.5-0.4-2.9-1.4-4.1
	c0-1-0.1-1.9-0.1-2.4C22,8.9,21.5,8.4,21,8.2c-0.2-0.1-0.4-0.1-0.7-0.1c-1,0-2.1,0.5-2.9,1c-0.7-0.1-1.4-0.2-2.3-0.2
	c-0.6,0-1.4,0-2.2,0.2c-1-0.6-2.1-1-2.9-1c-0.2,0-0.4,0-0.5,0C9,8.3,8.6,8.6,8.4,9c-0.5,1-0.5,2.1-0.4,2.9c-0.8,0.8-1.7,2.1-1.4,4.2
	c0.1,0.7,0.4,1.5,0.7,2.2c-0.6,0.3-0.9,1-0.8,1.6c0,0,0,0,0,0.1c0.2,0.8,0.8,1.2,1.2,1.4c0.2,0.1,0.3,0.5,0.4,0.7
	c0.1,0.2,0.2,0.3,0.2,0.4c0.6,1,1.6,1.6,2.8,1.7c0,0.2,0,0.3,0,0.5c0,0,0,0,0,0.1c0,0.2,0,0.3,0,0.5C7,23.7,4,19.7,4,15
	C4,8.9,8.9,4,15,4s11,4.9,11,11C26,19.4,23.4,23.2,19.6,25z"/>
</svg>
