<?xml version="1.0" encoding="utf-8"?>
<!-- Generator: Adobe Illustrator 22.1.0, SVG Export Plug-In . SVG Version: 6.00 Build 0)  -->
<svg version="1.1" id="Слой_1" xmlns="http://www.w3.org/2000/svg" xmlns:xlink="http://www.w3.org/1999/xlink" x="0px" y="0px"
	 viewBox="0 0 30 30" style="enable-background:new 0 0 30 30;" xml:space="preserve">
<style type="text/css">
	.st0{fill:#2B414D;}
</style>
<g>
	<path class="st0" d="M15,2.5C8.1,2.5,2.5,8.1,2.5,15S8.1,27.5,15,27.5S27.5,21.9,27.5,15S21.9,2.5,15,2.5z M15,26
		C8.9,26,4,21.1,4,15S8.9,4,15,4s11,4.9,11,11S21.1,26,15,26z"/>
	<path class="st0" d="M20.4,12.8c-0.3-0.3-0.6-0.5-0.9-0.6c-0.4-0.1-0.7-0.2-1.2-0.2c-0.3,0-0.6,0-0.9,0.1c-0.3,0.1-0.5,0.2-0.6,0.3
		c-0.2,0.1-0.3,0.3-0.5,0.4C16.1,13,16,13.1,16,13.2v-1.1h-2.6c0,0.2,0,7.7,0,7.7H16v-4.3c0-0.1,0-0.2,0-0.3c0-0.1,0-0.2,0.1-0.3
		c0.1-0.2,0.3-0.4,0.5-0.6c0.2-0.2,0.5-0.3,0.9-0.3c0.5,0,0.8,0.2,1,0.5c0.2,0.3,0.3,0.7,0.3,1.3v4.1h2.6v-4.4
		c0-0.6-0.1-1.1-0.2-1.5C20.8,13.4,20.6,13.1,20.4,12.8z"/>
	<path class="st0" d="M10.7,8.4c-0.4,0-0.8,0.1-1.1,0.4C9.4,9,9.3,9.4,9.3,9.7c0,0.4,0.1,0.7,0.4,0.9c0.3,0.3,0.6,0.4,1,0.4h0
		c0.5,0,0.8-0.1,1.1-0.4c0.3-0.3,0.4-0.6,0.4-0.9c0-0.4-0.1-0.7-0.4-0.9C11.5,8.5,11.1,8.4,10.7,8.4z"/>
	<rect x="9.4" y="12.1" class="st0" width="2.6" height="7.7"/>
</g>
</svg>
