<?xml version="1.0" encoding="utf-8"?>
<!-- Generator: Adobe Illustrator 22.1.0, SVG Export Plug-In . SVG Version: 6.00 Build 0)  -->
<svg version="1.1" id="Слой_1" xmlns="http://www.w3.org/2000/svg" xmlns:xlink="http://www.w3.org/1999/xlink" x="0px" y="0px"
	 viewBox="0 0 30 30" style="enable-background:new 0 0 30 30;" xml:space="preserve">
<style type="text/css">
	.st0{fill:#2B414D;}
</style>
<path class="st0" d="M24.5,6.5h-19c-1,0-1.8,0.8-1.8,1.8v13.4c0,1,0.8,1.8,1.8,1.8h19c1,0,1.8-0.8,1.8-1.8V8.3
	C26.3,7.3,25.5,6.5,24.5,6.5z M15,15.4L6.5,8h17L15,15.4z M5.4,9l6.9,6l-6.9,6c0,0-0.1,0.1-0.1,0.1V8.9C5.3,8.9,5.3,9,5.4,9z
	 M13.4,16l1.1,1c0,0,0.1,0.1,0.1,0.1c0,0,0.1,0,0.1,0c0.1,0,0.2,0.1,0.3,0.1c0,0,0,0,0,0s0,0,0,0c0.1,0,0.2,0,0.3-0.1
	c0,0,0.1,0,0.1,0c0,0,0.1,0,0.1-0.1l1.1-1l6.8,6h-17L13.4,16z M24.6,21l-6.9-6l6.9-6c0,0,0.1-0.1,0.1-0.1v12.2
	C24.7,21.1,24.7,21,24.6,21z"/>
</svg>
