<?xml version="1.0" encoding="utf-8"?>
<!-- Generator: Adobe Illustrator 22.1.0, SVG Export Plug-In . SVG Version: 6.00 Build 0)  -->
<svg version="1.1" id="Слой_1" xmlns="http://www.w3.org/2000/svg" xmlns:xlink="http://www.w3.org/1999/xlink" x="0px" y="0px"
	 viewBox="0 0 30 30" style="enable-background:new 0 0 30 30;" xml:space="preserve">
<style type="text/css">
	.st0{fill:#2B414D;}
</style>
<g>
	<path class="st0" d="M21.9,2.5H8.1c-1,0-1.8,0.8-1.8,1.8v21.6c0,1,0.8,1.8,1.8,1.8h13.7c1,0,1.8-0.8,1.8-1.8V4.2
		C23.6,3.3,22.8,2.5,21.9,2.5z M22.1,25.8c0,0.1-0.1,0.3-0.3,0.3H8.1c-0.1,0-0.3-0.1-0.3-0.3V4.2C7.9,4.1,8,4,8.1,4h13.7
		c0.1,0,0.3,0.1,0.3,0.3V25.8z"/>
	<circle class="st0" cx="15" cy="23.8" r="0.9"/>
	<path class="st0" d="M19.2,5.4h-8.4c-0.8,0-1.5,0.7-1.5,1.5V20c0,0.8,0.7,1.5,1.5,1.5h8.4c0.8,0,1.5-0.7,1.5-1.5V6.9
		C20.7,6.1,20,5.4,19.2,5.4z M19.2,20h-8.4V6.9h8.4V20z"/>
</g>
</svg>
