<?xml version="1.0" encoding="utf-8"?>
<!-- Generator: Adobe Illustrator 22.1.0, SVG Export Plug-In . SVG Version: 6.00 Build 0)  -->
<svg version="1.1" id="Слой_1" xmlns="http://www.w3.org/2000/svg" xmlns:xlink="http://www.w3.org/1999/xlink" x="0px" y="0px"
	 viewBox="0 0 30 30" style="enable-background:new 0 0 30 30;" xml:space="preserve">
<style type="text/css">
	.st0{fill:#2B414D;}
</style>
<path class="st0" d="M27,3.6c-0.2-0.2-0.5-0.2-0.8-0.1L3.2,13c-0.3,0.1-0.4,0.3-0.5,0.6s0.1,0.5,0.3,0.7l7.2,4.7l0.6,6.1
	c0,0.3,0.2,0.5,0.5,0.6c0.3,0.1,0.6,0,0.8-0.2l4-3.8l6.2,4.7c0.1,0.1,0.3,0.2,0.5,0.2c0.1,0,0.2,0,0.3-0.1c0.2-0.1,0.4-0.3,0.5-0.6
	l3.6-21.7C27.3,4,27.2,3.7,27,3.6z M22.3,24.5l-5.7-4.3c-0.1-0.1-0.3-0.2-0.5-0.2c-0.2,0-0.4,0.1-0.5,0.2l-3.3,3.2l-0.5-4.5l5.6-5.3
	c0.3-0.3,0.3-0.8,0-1.1c-0.3-0.3-0.8-0.3-1.1,0l-5.5,5.1l-5.9-3.8l20.4-8.5L22.3,24.5z"/>
</svg>
